{"title":"127.Hours.2010.DVDSCR.Upscaled.720p.XviD-HQ-Jucified","uid":6092392,"size":2378271698,"categoryP":"video","categoryS":"hd___movies","magnet":"?xt=urn:btih:e54984834ff0404402c413c52162f2646f43c87d&amp;dn=127.Hours.2010.DVDSCR.Upscaled.720p.XviD-HQ-Jucified&amp;tr=udp%3A%2F%2Ftracker.openbittorrent.com%3A80&amp;tr=udp%3A%2F%2Fopen.demonii.com%3A1337&amp;tr=udp%3A%2F%2Ftracker.coppersurfer.tk%3A6969&amp;tr=udp%3A%2F%2Fexodus.desync.com%3A6969","seeders":0,"leechers":0,"uploader":"TvTeam","files":5,"time":1294620445,"description":". \n  &lt;a href=&quot;\nhttp://www.torrentday.com/&quot; rel=&quot;nofollow&quot; target=&quot;_NEW&quot;&gt;\nhttp://www.torrentday.com/&lt;/a&gt;        :     The Hottest Private Tracker On The Net!!! &lt;a href=&quot;\nhttp://www.torrentday.com&quot; rel=&quot;nofollow&quot; target=&quot;_NEW&quot;&gt;\nhttp://www.torrentday.com&lt;/a&gt;          :     Once you visit it, You can't stop yourself visiting Torrentday everyday ;)\n\n\n               www . TorrentDay . Com \n\n(((((((((((((= Enjoy No RAR releases =))))))))))))))))))))\n\n\n...................................NFO:....................................\n\n.General\n\nComplete name                    : 127 Hours 2010 DVDSCR (Upscaled 720p) XviD-HQ Jucified.avi\nFormat                           : AVI\nFormat/Info                      : Audio Video Interleave\nFormat profile                   : OpenDML\nFile size                        : 2.19 GiB\nDuration                         : 1h 28mn\nOverall bit rate                 : 3 542 Kbps\n\nVideo\n\nFormat                           : MPEG-4 Visual\nFormat profile                   : Streaming Video@L1\nFormat settings, BVOP            : Yes\nFormat settings, QPel            : No\nFormat settings, GMC             : No warppoints\nFormat settings, Matrix          : Default (H.263)\nCodec ID                         : XVID\nCodec ID/Hint                    : XviD\nDuration                         : 1h 28mn\nBit rate                         : 3 281 Kbps\nWidth                            : 1 280 pixels\nHeight                           : 692 pixels\nDisplay aspect ratio             : 1.850\nFrame rate                       : 29.970 fps\nResolution                       : 24 bits\nColorimetry                      : 4:2:0\nScan type                        : Progressive\nBits/(Pixel*Frame)               : 0.124\nStream size                      : 2.03 GiB (93%)\nWriting library                  : XviD 1.2.1\n\nAudio\n\nFormat                           : MPEG Audio\nFormat version                   : Version 1\nFormat profile                   : Layer 3\nCodec ID                         : 55\nCodec ID/Hint                    : MP3\nDuration                         : 1h 28mn\nBit rate mode                    : Constant\nBit rate                         : 256 Kbps\nChannel(s)                       : 2 channels\nSampling rate                    : 44.1 KHz\nResolution                       : 16 bits\nStream size                      : 162 MiB (7%)","torrent":{"xt":"urn:btih:e54984834ff0404402c413c52162f2646f43c87d","amp;dn":"127.Hours.2010.DVDSCR.Upscaled.720p.XviD-HQ-Jucified","amp;tr":["udp%3A%2F%2Ftracker.openbittorrent.com%3A80","udp%3A%2F%2Fopen.demonii.com%3A1337","udp%3A%2F%2Ftracker.coppersurfer.tk%3A6969","udp%3A%2F%2Fexodus.desync.com%3A6969"],"infoHash":"e54984834ff0404402c413c52162f2646f43c87d","infoHashBuffer":{"type":"Buffer","data":[229,73,132,131,79,240,64,68,2,196,19,197,33,98,242,100,111,67,200,125]},"announce":[],"urlList":[]}}